<svg class="water_polo" xmlns="http://www.w3.org/2000/svg" xmlns:xlink="http://www.w3.org/1999/xlink" width="100%" height="100%" viewBox="0 0 200 200" version="1.1">
<g id="surface1">
<path class="circle" style="fill-rule:nonzero;fill:rgb(50.196078%,50.196078%,50.196078%);fill-opacity:1;stroke-width:10;stroke-linecap:butt;stroke-linejoin:miter;stroke:rgb(100%,100%,100%);stroke-opacity:1;stroke-miterlimit:4;" d="M 727.301625 373.30416 C 727.301625 570.739219 567.235219 730.805625 369.80016 730.805625 C 172.365102 730.805625 12.298695 570.739219 12.298695 373.30416 C 12.298695 175.854941 172.365102 15.802695 369.80016 15.802695 C 567.235219 15.802695 727.301625 175.854941 727.301625 373.30416 Z M 727.301625 373.30416 " transform="matrix(0.275862,0,0,0.275862,-2.009931,-2.976552)"/>
<path style="fill:none;stroke-width:10;stroke-linecap:butt;stroke-linejoin:miter;stroke:rgb(100%,100%,100%);stroke-opacity:1;stroke-miterlimit:4;" d="M 30.706898 272.002402 C 236.298207 286.998008 418.69518 344.700645 601.998402 400.604941 M 12.199574 370.996055 C 102.39977 479.703574 379.004262 525.993125 582.400746 499.697715 " transform="matrix(0.275862,0,0,0.275862,-2.009931,-2.976552)"/>
<path style="fill:none;stroke-width:10;stroke-linecap:butt;stroke-linejoin:miter;stroke:rgb(100%,100%,100%);stroke-opacity:1;stroke-miterlimit:4;" d="M 54.793324 541.002891 C 230.605824 633.298789 340.205434 633.001426 460.39684 651.593711 C 622.006703 533.597129 638.998891 379.60543 548.996937 199.006797 L 122.294789 118.506309 M 174.503285 597.204551 C 173.99352 624.901816 185.505727 663.502402 199.694203 687.206504 M 261.701527 622.296348 C 273.100453 664.805137 301.505727 707.299766 347.696156 729.701133 M 460.39684 649.993613 C 463.795277 670.49752 464.998891 700.205527 492.398793 708.998984 M 516.994984 699.299277 C 731.39391 548.493613 735.797719 293.695762 608.200551 122.30123 M 622.006703 119.001914 C 606.005727 108.806602 543.205434 195.806602 549.506703 200.19625 M 347.497914 163.606406 C 375.096059 110.293418 424.20348 67.402305 477.502309 33.998496 M 324.204457 19.994102 C 292.995473 56.697227 260.696156 98.002402 258.501332 144.306113 " transform="matrix(0.275862,0,0,0.275862,-2.009931,-2.976552)"/>
</g>
</svg>